<svg xmlns="http://www.w3.org/2000/svg" xmlns:xlink="http://www.w3.org/1999/xlink" viewBox="100 505 1300 490" version="1.0"><defs><clipPath id="de9ad3dc29"><path d="M 315 592 L 702 592 L 702 988 L 315 988 Z M 315 592 " clip-rule="nonzero"/></clipPath><clipPath id="f5ce79eada"><path d="M 596 782.0625 C 596 817.992188 566.886719 847.136719 530.953125 847.136719 L 416.542969 847.136719 C 380.609375 847.136719 351.464844 817.992188 351.464844 782.0625 L 351.464844 687.671875 C 351.464844 650.242188 381.847656 619.863281 419.304688 619.863281 L 530.953125 619.863281 C 566.886719 619.863281 596 649.007812 596 684.9375 Z M 701.007812 750.675781 C 700.777344 733.328125 696.71875 716.554688 689.296875 700.558594 C 680.695312 681.945312 667.289062 667.390625 652.820312 653.4375 C 647.554688 648.375 642.320312 643.136719 637.832031 637.414062 C 615.046875 608.328125 585.5 592.761719 548.386719 592.304688 C 528.882812 592.042969 509.40625 592.246094 489.902344 592.246094 L 489.902344 592.214844 C 470.914062 592.214844 451.957031 592.304688 432.96875 592.214844 C 391.628906 591.988281 360.816406 611.175781 337.425781 643.972656 C 322.925781 664.3125 316.683594 687.5 316.28125 712.066406 C 315.707031 747.367188 315.9375 782.695312 316.253906 817.992188 C 316.339844 827.917969 317.835938 837.816406 318.699219 847.710938 C 321.402344 878.925781 337.285156 902.890625 360.125 923.085938 C 371.546875 933.183594 383.167969 943.082031 393.957031 953.8125 C 416.886719 976.566406 444.964844 986.636719 476.464844 987.238281 C 512.3125 987.960938 548.160156 987.757812 583.976562 987.183594 C 594.851562 987.011719 606.128906 985.628906 616.484375 982.4375 C 664.988281 967.417969 699.195312 926.25 700.949219 870.8125 C 702.1875 830.824219 701.554688 790.722656 701.007812 750.675781 " clip-rule="nonzero"/></clipPath><clipPath id="c3b4005b6f"><path d="M 0.601562 0 L 387 0 L 387 396 L 0.601562 396 Z M 0.601562 0 " clip-rule="nonzero"/></clipPath><clipPath id="45581c4e4f"><path d="M 281 190.0625 C 281 225.992188 251.886719 255.136719 215.953125 255.136719 L 101.542969 255.136719 C 65.609375 255.136719 36.464844 225.992188 36.464844 190.0625 L 36.464844 95.671875 C 36.464844 58.242188 66.847656 27.863281 104.304688 27.863281 L 215.953125 27.863281 C 251.886719 27.863281 281 57.007812 281 92.9375 Z M 386.007812 158.675781 C 385.777344 141.328125 381.71875 124.554688 374.296875 108.558594 C 365.695312 89.945312 352.289062 75.390625 337.820312 61.4375 C 332.554688 56.375 327.320312 51.136719 322.832031 45.414062 C 300.046875 16.328125 270.5 0.761719 233.386719 0.304688 C 213.882812 0.0429688 194.40625 0.246094 174.902344 0.246094 L 174.902344 0.214844 C 155.914062 0.214844 136.957031 0.304688 117.96875 0.214844 C 76.628906 -0.0117188 45.816406 19.175781 22.425781 51.972656 C 7.925781 72.3125 1.683594 95.5 1.28125 120.066406 C 0.707031 155.367188 0.9375 190.695312 1.253906 225.992188 C 1.339844 235.917969 2.835938 245.816406 3.699219 255.710938 C 6.402344 286.925781 22.285156 310.890625 45.125 331.085938 C 56.546875 341.183594 68.167969 351.082031 78.957031 361.8125 C 101.886719 384.566406 129.964844 394.636719 161.464844 395.238281 C 197.3125 395.960938 233.160156 395.757812 268.976562 395.183594 C 279.851562 395.011719 291.128906 393.628906 301.484375 390.4375 C 349.988281 375.417969 384.195312 334.25 385.949219 278.8125 C 387.1875 238.824219 386.554688 198.722656 386.007812 158.675781 " clip-rule="nonzero"/></clipPath><clipPath id="3e5e32fe64"><rect x="0" width="387" y="0" height="396"/></clipPath><clipPath id="391206bf3e"><path d="M 720 513 L 958 513 L 958 988 L 720 988 Z M 720 513 " clip-rule="nonzero"/></clipPath><clipPath id="f23ed30b5d"><path d="M 909.8125 669.085938 C 909.8125 675.414062 910.011719 680.132812 909.753906 684.792969 C 909.492188 689.945312 911.335938 693.828125 915.074219 697.308594 C 920.859375 702.6875 926.265625 708.441406 931.90625 713.996094 C 940.535156 722.511719 945.339844 732.40625 944.851562 744.949219 C 944.332031 758.097656 944.792969 771.273438 944.707031 784.449219 C 944.5625 804.847656 938.089844 814.339844 919.449219 821.617188 C 916.601562 822.742188 913.578125 823.402344 909.78125 824.523438 L 909.78125 840.492188 C 909.78125 877.371094 909.898438 914.253906 909.722656 951.105469 C 909.667969 968.222656 902.214844 979.097656 886.679688 985.082031 C 882.882812 986.550781 878.566406 987.269531 874.484375 987.296875 C 849.195312 987.5 823.90625 987.183594 798.621094 987.5 C 787.859375 987.644531 779.230469 983.472656 771.605469 976.597656 C 758.71875 965.03125 745.769531 953.496094 733.226562 941.554688 C 725.34375 934.074219 720.855469 924.898438 720.855469 913.5625 C 720.972656 818.742188 719.734375 723.921875 721.402344 629.097656 C 722.410156 571.359375 761.507812 529.703125 811.105469 516.8125 C 819.621094 514.597656 828.652344 513.734375 837.515625 513.417969 C 853.308594 512.871094 869.132812 513.5625 884.925781 513.132812 C 896.03125 512.816406 903.941406 518.308594 910.960938 525.703125 C 921.433594 536.722656 931.070312 548.574219 941.972656 559.160156 C 952.503906 569.375 957.59375 581.140625 957.277344 595.667969 C 956.992188 608.296875 957.335938 620.957031 957.164062 633.585938 C 957.050781 642.792969 954.34375 650.933594 947.785156 657.894531 C 941.3125 664.769531 934.292969 669.34375 924.367188 668.425781 C 920.28125 668.050781 916.109375 668.742188 909.8125 669.027344 " clip-rule="nonzero"/></clipPath><clipPath id="96f491fc82"><path d="M 0 0 L 237.601562 0 L 237.601562 474.839844 L 0 474.839844 Z M 0 0 " clip-rule="nonzero"/></clipPath><clipPath id="22375794f1"><path d="M 189.8125 156.085938 C 189.8125 162.414062 190.011719 167.132812 189.753906 171.792969 C 189.492188 176.945312 191.335938 180.828125 195.074219 184.308594 C 200.859375 189.6875 206.265625 195.441406 211.90625 200.996094 C 220.535156 209.511719 225.339844 219.40625 224.851562 231.949219 C 224.332031 245.097656 224.792969 258.273438 224.707031 271.449219 C 224.5625 291.847656 218.089844 301.339844 199.449219 308.617188 C 196.601562 309.742188 193.578125 310.402344 189.78125 311.523438 L 189.78125 327.492188 C 189.78125 364.371094 189.898438 401.253906 189.722656 438.105469 C 189.667969 455.222656 182.214844 466.097656 166.679688 472.082031 C 162.882812 473.550781 158.566406 474.269531 154.484375 474.296875 C 129.195312 474.5 103.90625 474.183594 78.621094 474.5 C 67.859375 474.644531 59.230469 470.472656 51.605469 463.597656 C 38.71875 452.03125 25.769531 440.496094 13.226562 428.554688 C 5.34375 421.074219 0.855469 411.898438 0.855469 400.5625 C 0.972656 305.742188 -0.265625 210.921875 1.402344 116.097656 C 2.410156 58.359375 41.507812 16.703125 91.105469 3.8125 C 99.621094 1.597656 108.652344 0.734375 117.515625 0.417969 C 133.308594 -0.128906 149.132812 0.5625 164.925781 0.132812 C 176.03125 -0.183594 183.941406 5.308594 190.960938 12.703125 C 201.433594 23.722656 211.070312 35.574219 221.972656 46.160156 C 232.503906 56.375 237.59375 68.140625 237.277344 82.667969 C 236.992188 95.296875 237.335938 107.957031 237.164062 120.585938 C 237.050781 129.792969 234.34375 137.933594 227.785156 144.894531 C 221.3125 151.769531 214.292969 156.34375 204.367188 155.425781 C 200.28125 155.050781 196.109375 155.742188 189.8125 156.027344 " clip-rule="nonzero"/></clipPath><clipPath id="02797cdfa4"><rect x="0" width="238" y="0" height="475"/></clipPath><clipPath id="4737b659d5"><path d="M 976 513 L 1204 513 L 1204 988 L 976 988 Z M 976 513 " clip-rule="nonzero"/></clipPath><clipPath id="3e31d23116"><path d="M 1163.0625 749.410156 C 1163.0625 781.398438 1163.148438 812.5 1162.976562 843.597656 C 1162.945312 849.410156 1165.304688 853.550781 1169.304688 857.40625 C 1175.777344 863.621094 1181.964844 870.09375 1188.351562 876.394531 C 1198.996094 886.894531 1204.632812 899.179688 1203.769531 914.542969 C 1203.109375 926.105469 1203.683594 937.730469 1203.625 949.351562 C 1203.480469 974.152344 1186.769531 988.277344 1165.164062 987.644531 C 1138.292969 986.867188 1111.363281 987.269531 1084.496094 987.5 C 1063.40625 987.699219 1045.628906 981.082031 1030.957031 965.320312 C 1020.945312 954.558594 1009.582031 945.066406 998.621094 935.253906 C 984.179688 922.308594 976.207031 906.859375 976.265625 886.867188 C 976.554688 774.554688 976.324219 662.210938 976.4375 549.898438 C 976.46875 526.652344 989.527344 513.5625 1012.542969 513.363281 C 1037.859375 513.132812 1063.175781 513.707031 1088.464844 513.132812 C 1100.605469 512.84375 1110.53125 516.613281 1117.378906 526.164062 C 1126.066406 538.304688 1137.257812 547.796875 1148.160156 557.664062 C 1158.917969 567.417969 1165.25 578.839844 1163.121094 593.886719 C 1162.976562 594.921875 1163.089844 595.984375 1163.089844 597.050781 C 1163.667969 624.984375 1158.660156 622.195312 1181.703125 644.027344 C 1188.636719 650.589844 1191.570312 658.5 1191.3125 668.109375 C 1190.910156 682.320312 1190.652344 696.617188 1191.339844 710.832031 C 1192.203125 728.496094 1183.429688 739.453125 1168.585938 746.90625 C 1167.203125 747.597656 1165.796875 748.199219 1163.0625 749.464844 " clip-rule="nonzero"/></clipPath><clipPath id="e0168c3f3e"><path d="M 0.078125 0 L 228 0 L 228 475 L 0.078125 475 Z M 0.078125 0 " clip-rule="nonzero"/></clipPath><clipPath id="225647a623"><path d="M 187.0625 236.410156 C 187.0625 268.398438 187.148438 299.5 186.976562 330.597656 C 186.945312 336.410156 189.304688 340.550781 193.304688 344.40625 C 199.777344 350.621094 205.964844 357.09375 212.351562 363.394531 C 222.996094 373.894531 228.632812 386.179688 227.769531 401.542969 C 227.109375 413.105469 227.683594 424.730469 227.625 436.351562 C 227.480469 461.152344 210.769531 475.277344 189.164062 474.644531 C 162.292969 473.867188 135.363281 474.269531 108.496094 474.5 C 87.40625 474.699219 69.628906 468.082031 54.957031 452.320312 C 44.945312 441.558594 33.582031 432.066406 22.621094 422.253906 C 8.179688 409.308594 0.207031 393.859375 0.265625 373.867188 C 0.554688 261.554688 0.324219 149.210938 0.4375 36.898438 C 0.46875 13.652344 13.527344 0.5625 36.542969 0.363281 C 61.859375 0.132812 87.175781 0.707031 112.464844 0.132812 C 124.605469 -0.15625 134.53125 3.613281 141.378906 13.164062 C 150.066406 25.304688 161.257812 34.796875 172.160156 44.664062 C 182.917969 54.417969 189.25 65.839844 187.121094 80.886719 C 186.976562 81.921875 187.089844 82.984375 187.089844 84.050781 C 187.667969 111.984375 182.660156 109.195312 205.703125 131.027344 C 212.636719 137.589844 215.570312 145.5 215.3125 155.109375 C 214.910156 169.320312 214.652344 183.617188 215.339844 197.832031 C 216.203125 215.496094 207.429688 226.453125 192.585938 233.90625 C 191.203125 234.597656 189.796875 235.199219 187.0625 236.464844 " clip-rule="nonzero"/></clipPath><clipPath id="6e35cc23b0"><rect x="0" width="228" y="0" height="475"/></clipPath><clipPath id="334029f1f2"><path d="M 109.394531 513 L 300 513 L 300 988 L 109.394531 988 Z M 109.394531 513 " clip-rule="nonzero"/></clipPath><clipPath id="7971af9fb3"><path d="M 110.183594 731.800781 C 110.183594 672.742188 110.097656 613.679688 110.296875 554.617188 C 110.328125 547.914062 110.902344 540.75 113.289062 534.621094 C 118.179688 522.019531 127.472656 513.621094 141.742188 513.449219 C 170.222656 513.101562 198.703125 513.304688 227.15625 513.273438 C 237.339844 513.273438 245.453125 518.078125 252.15625 525.070312 C 262.714844 536.03125 272.09375 548.230469 283.226562 558.5 C 294.675781 569.058594 298.734375 581.800781 299.078125 596.503906 C 299.25 603.898438 299.105469 611.261719 299.105469 618.65625 C 299.105469 725.703125 299.164062 832.753906 298.992188 939.773438 C 298.992188 947.050781 298.042969 954.445312 296.460938 961.550781 C 292.894531 977.773438 281.875 987.011719 265.246094 987.269531 C 238.894531 987.644531 212.511719 987.269531 186.160156 987.441406 C 175.976562 987.5 167.894531 983.011719 160.699219 976.539062 C 147.785156 964.972656 135.097656 953.121094 122.179688 941.554688 C 113.316406 933.644531 109.921875 924.09375 109.980469 912.125 C 110.355469 852.027344 110.152344 791.902344 110.152344 731.773438 " clip-rule="nonzero"/></clipPath><clipPath id="ea0ff82a87"><path d="M 0.921875 0 L 190.28125 0 L 190.28125 474.839844 L 0.921875 474.839844 Z M 0.921875 0 " clip-rule="nonzero"/></clipPath><clipPath id="6023e17674"><path d="M 1.183594 218.800781 C 1.183594 159.742188 1.097656 100.679688 1.296875 41.617188 C 1.328125 34.914062 1.902344 27.75 4.289062 21.621094 C 9.179688 9.019531 18.472656 0.621094 32.742188 0.449219 C 61.222656 0.101562 89.703125 0.304688 118.15625 0.273438 C 128.339844 0.273438 136.453125 5.078125 143.15625 12.070312 C 153.714844 23.03125 163.09375 35.230469 174.226562 45.5 C 185.675781 56.058594 189.734375 68.800781 190.078125 83.503906 C 190.25 90.898438 190.105469 98.261719 190.105469 105.65625 C 190.105469 212.703125 190.164062 319.753906 189.992188 426.773438 C 189.992188 434.050781 189.042969 441.445312 187.460938 448.550781 C 183.894531 464.773438 172.875 474.011719 156.246094 474.269531 C 129.894531 474.644531 103.511719 474.269531 77.160156 474.441406 C 66.976562 474.5 58.894531 470.011719 51.699219 463.539062 C 38.785156 451.972656 26.097656 440.121094 13.179688 428.554688 C 4.316406 420.644531 0.921875 411.09375 0.980469 399.125 C 1.355469 339.027344 1.152344 278.902344 1.152344 218.773438 " clip-rule="nonzero"/></clipPath><clipPath id="a4b6d80aa5"><rect x="0" width="191" y="0" height="475"/></clipPath><clipPath id="d19c19a098"><path d="M 1214 819.308594 L 1387.941406 819.308594 L 1387.941406 988 L 1214 988 Z M 1214 819.308594 " clip-rule="nonzero"/></clipPath><clipPath id="338d49c923"><path d="M 1321.894531 987.414062 C 1313.464844 987.414062 1304.921875 986.636719 1296.605469 987.585938 C 1283.285156 989.109375 1272.957031 983.585938 1263.722656 975.273438 C 1251.210938 964.023438 1238.78125 952.6875 1226.929688 940.75 C 1218.5 932.261719 1214.300781 921.417969 1214.214844 909.335938 C 1214.070312 892.992188 1213.808594 876.652344 1214.355469 860.3125 C 1214.585938 853.582031 1215.652344 846.503906 1218.183594 840.347656 C 1223.074219 828.378906 1231.847656 820.265625 1245.65625 820.121094 C 1270.425781 819.890625 1295.226562 820.121094 1319.996094 819.980469 C 1329.316406 819.921875 1337.085938 824.378906 1341.484375 831.3125 C 1349.628906 844.058594 1361.335938 853.035156 1371.722656 863.332031 C 1382.453125 873.976562 1388.320312 885.601562 1387.515625 901.136719 C 1386.625 918.484375 1387.488281 935.917969 1387.257812 953.320312 C 1386.96875 973.289062 1373.792969 986.578125 1353.539062 987.328125 C 1343.011719 987.699219 1332.453125 987.382812 1321.921875 987.382812 " clip-rule="nonzero"/></clipPath><clipPath id="1bd19ee04c"><path d="M 0 0.839844 L 173.941406 0.839844 L 173.941406 169 L 0 169 Z M 0 0.839844 " clip-rule="nonzero"/></clipPath><clipPath id="fce2439e01"><path d="M 107.894531 168.414062 C 99.464844 168.414062 90.921875 167.636719 82.605469 168.585938 C 69.285156 170.109375 58.957031 164.585938 49.722656 156.273438 C 37.210938 145.023438 24.78125 133.6875 12.929688 121.75 C 4.5 113.261719 0.300781 102.417969 0.214844 90.335938 C 0.0703125 73.992188 -0.191406 57.652344 0.355469 41.3125 C 0.585938 34.582031 1.652344 27.503906 4.183594 21.347656 C 9.074219 9.378906 17.847656 1.265625 31.65625 1.121094 C 56.425781 0.890625 81.226562 1.121094 105.996094 0.980469 C 115.316406 0.921875 123.085938 5.378906 127.484375 12.3125 C 135.628906 25.058594 147.335938 34.035156 157.722656 44.332031 C 168.453125 54.976562 174.320312 66.601562 173.515625 82.136719 C 172.625 99.484375 173.488281 116.917969 173.257812 134.320312 C 172.96875 154.289062 159.792969 167.578125 139.539062 168.328125 C 129.011719 168.699219 118.453125 168.382812 107.921875 168.382812 " clip-rule="nonzero"/></clipPath><clipPath id="251a10a0ab"><rect x="0" width="174" y="0" height="169"/></clipPath><clipPath id="16fa66edff"><path d="M 1234.515625 837.011719 L 1326.964844 837.011719 L 1326.964844 923.5625 L 1234.515625 923.5625 Z M 1234.515625 837.011719 " clip-rule="nonzero"/></clipPath><clipPath id="e6c51b4790"><path d="M 1305.957031 923.515625 L 1255.035156 923.515625 C 1243.699219 923.515625 1234.523438 914.339844 1234.523438 903.003906 L 1234.523438 858.011719 C 1234.523438 846.675781 1243.699219 837.5 1255.035156 837.5 L 1305.957031 837.5 C 1317.292969 837.5 1326.46875 846.675781 1326.46875 858.011719 L 1326.46875 903.003906 C 1326.46875 914.339844 1317.292969 923.515625 1305.957031 923.515625 " clip-rule="nonzero"/></clipPath><clipPath id="8a2824d4ce"><path d="M 0.515625 0.359375 L 92.480469 0.359375 L 92.480469 86.519531 L 0.515625 86.519531 Z M 0.515625 0.359375 " clip-rule="nonzero"/></clipPath><clipPath id="d7a5cab115"><path d="M 71.957031 86.515625 L 21.035156 86.515625 C 9.699219 86.515625 0.523438 77.339844 0.523438 66.003906 L 0.523438 21.011719 C 0.523438 9.675781 9.699219 0.5 21.035156 0.5 L 71.957031 0.5 C 83.292969 0.5 92.46875 9.675781 92.46875 21.011719 L 92.46875 66.003906 C 92.46875 77.339844 83.292969 86.515625 71.957031 86.515625 " clip-rule="nonzero"/></clipPath><clipPath id="1db7d9104c"><rect x="0" width="93" y="0" height="87"/></clipPath></defs><g clip-path="url(#de9ad3dc29)"><g clip-path="url(#f5ce79eada)"><g transform="matrix(1, 0, 0, 1, 315, 592)"><g clip-path="url(#3e5e32fe64)"><g clip-path="url(#c3b4005b6f)"><g clip-path="url(#45581c4e4f)"><rect x="-645" width="2160" fill="#ffffff" height="2159.999904" y="-921.999985" fill-opacity="1"/></g></g></g></g></g></g><g clip-path="url(#391206bf3e)"><g clip-path="url(#f23ed30b5d)"><g transform="matrix(1, 0, 0, 1, 720, 513)"><g clip-path="url(#02797cdfa4)"><g clip-path="url(#96f491fc82)"><g clip-path="url(#22375794f1)"><rect x="-1050" width="2160" fill="#ffffff" height="2159.999904" y="-842.999985" fill-opacity="1"/></g></g></g></g></g></g><g clip-path="url(#4737b659d5)"><g clip-path="url(#3e31d23116)"><g transform="matrix(1, 0, 0, 1, 976, 513)"><g clip-path="url(#6e35cc23b0)"><g clip-path="url(#e0168c3f3e)"><g clip-path="url(#225647a623)"><rect x="-1306" width="2160" fill="#ffffff" height="2159.999904" y="-842.999985" fill-opacity="1"/></g></g></g></g></g></g><g clip-path="url(#334029f1f2)"><g clip-path="url(#7971af9fb3)"><g transform="matrix(1, 0, 0, 1, 109, 513)"><g clip-path="url(#a4b6d80aa5)"><g clip-path="url(#ea0ff82a87)"><g clip-path="url(#6023e17674)"><rect x="-439" width="2160" fill="#ffffff" height="2159.999904" y="-842.999985" fill-opacity="1"/></g></g></g></g></g></g><g clip-path="url(#d19c19a098)"><g clip-path="url(#338d49c923)"><g transform="matrix(1, 0, 0, 1, 1214, 819)"><g clip-path="url(#251a10a0ab)"><g clip-path="url(#1bd19ee04c)"><g clip-path="url(#fce2439e01)"><rect x="-1544" width="2160" fill="#ffffff" height="2159.999904" y="-1148.999985" fill-opacity="1"/></g></g></g></g></g></g><g clip-path="url(#16fa66edff)"><g clip-path="url(#e6c51b4790)"><g transform="matrix(1, 0, 0, 1, 1234, 837)"><g clip-path="url(#1db7d9104c)"><g clip-path="url(#8a2824d4ce)"><g clip-path="url(#d7a5cab115)"><rect x="-1564" width="2160" fill="#7dc464" height="2159.999904" y="-1166.999985" fill-opacity="1"/></g></g></g></g></g></g></svg>